# xmcd
#
# Track frame offsets:
#	150
#	9749
#	26816
#	46879
#	74788
#	100689
#	124051
#	131003
#	151744
#	173339
#	199138
#	217620
#	238490
#
# Disc length: 3471 seconds
#
# Revision: 0
# Processed by: cddbd v1.5.1PL2 Copyright (c) Steve Scherf et al.
# Submitted via: EasyCDDAExtractor 8.1.2.3
#
DISCID=af0d8d0d
DTITLE=Twista - Adrenaline rush
DYEAR=1997
DGENRE=Rap
TTITLE0=Intro
TTITLE1=Adrenaline rush
TTITLE2=Death before dishonor
TTITLE3=It feels so good
TTITLE4=Overdose
TTITLE5=Mobster's anthem
TTITLE6=Get her in tha mood
TTITLE7=Emotions
TTITLE8=Unsolved Mystery
TTITLE9=Korrupt world
TTITLE10=Get it wet
TTITLE11=No remorse
TTITLE12=Emotions (remix)
EXTD=
EXTT0=
EXTT1=
EXTT2=
EXTT3=
EXTT4=
EXTT5=
EXTT6=
EXTT7=
EXTT8=
EXTT9=
EXTT10=
EXTT11=
EXTT12=
PLAYORDER=
